<svg width="32" height="32" viewBox="0 0 32 32" fill="none" xmlns="http://www.w3.org/2000/svg">
<path d="M11.7333 14.9334C10.3188 14.9334 8.96223 14.3715 7.96203 13.3713C6.96184 12.3711 6.39994 11.0145 6.39994 9.60003V5.33336C6.39994 5.05046 6.51232 4.77915 6.71235 4.57911C6.91239 4.37908 7.1837 4.2667 7.4666 4.2667H8.53327C8.81617 4.2667 9.08748 4.15431 9.28752 3.95428C9.48756 3.75424 9.59994 3.48293 9.59994 3.20003C9.59994 2.91713 9.48756 2.64582 9.28752 2.44578C9.08748 2.24574 8.81617 2.13336 8.53327 2.13336H7.4666C6.61791 2.13336 5.80398 2.4705 5.20386 3.07062C4.60374 3.67074 4.2666 4.48467 4.2666 5.33336V9.60003C4.26797 10.8051 4.56183 11.9918 5.12292 13.0582C5.68402 14.1247 6.49559 15.039 7.48794 15.7227C8.44135 16.5633 9.21456 17.5883 9.76088 18.7359C10.3072 19.8836 10.6153 21.13 10.6666 22.4C10.6666 24.3803 11.4533 26.2795 12.8535 27.6798C14.2538 29.08 16.153 29.8667 18.1333 29.8667C20.1136 29.8667 22.0127 29.08 23.413 27.6798C24.8133 26.2795 25.5999 24.3803 25.5999 22.4V21.184C26.6054 20.9244 27.4817 20.307 28.0646 19.4475C28.6474 18.588 28.8968 17.5454 28.7659 16.5152C28.6351 15.485 28.133 14.5379 27.3538 13.8514C26.5746 13.1649 25.5718 12.7862 24.5333 12.7862C23.4948 12.7862 22.492 13.1649 21.7128 13.8514C20.9335 14.5379 20.4315 15.485 20.3006 16.5152C20.1698 17.5454 20.4191 18.588 21.002 19.4475C21.5848 20.307 22.4611 20.9244 23.4666 21.184V22.4C23.4666 23.8145 22.9047 25.1711 21.9045 26.1713C20.9043 27.1715 19.5478 27.7334 18.1333 27.7334C16.7188 27.7334 15.3622 27.1715 14.362 26.1713C13.3618 25.1711 12.7999 23.8145 12.7999 22.4C12.8539 21.1285 13.1654 19.881 13.7154 18.7333C14.2654 17.5856 15.0426 16.5614 15.9999 15.7227C16.9883 15.0367 17.7958 14.1213 18.3531 13.055C18.9104 11.9887 19.201 10.8032 19.1999 9.60003V5.33336C19.1999 4.48467 18.8628 3.67074 18.2627 3.07062C17.6626 2.4705 16.8486 2.13336 15.9999 2.13336H14.9333C14.6504 2.13336 14.3791 2.24574 14.179 2.44578C13.979 2.64582 13.8666 2.91713 13.8666 3.20003C13.8666 3.48293 13.979 3.75424 14.179 3.95428C14.3791 4.15431 14.6504 4.2667 14.9333 4.2667H15.9999C16.2828 4.2667 16.5541 4.37908 16.7542 4.57911C16.9542 4.77915 17.0666 5.05046 17.0666 5.33336V9.60003C17.0666 10.3004 16.9287 10.9939 16.6606 11.641C16.3926 12.2881 15.9998 12.876 15.5045 13.3713C15.0093 13.8665 14.4213 14.2594 13.7742 14.5274C13.1272 14.7954 12.4337 14.9334 11.7333 14.9334ZM24.5333 19.2C23.9675 19.2 23.4249 18.9753 23.0248 18.5752C22.6247 18.1751 22.3999 17.6325 22.3999 17.0667C22.3999 16.5009 22.6247 15.9583 23.0248 15.5582C23.4249 15.1581 23.9675 14.9334 24.5333 14.9334C25.0991 14.9334 25.6417 15.1581 26.0418 15.5582C26.4418 15.9583 26.6666 16.5009 26.6666 17.0667C26.6666 17.6325 26.4418 18.1751 26.0418 18.5752C25.6417 18.9753 25.0991 19.2 24.5333 19.2Z" fill="white"/>
</svg>
